PathFileType	3	(X/Y/Z)	C:\Users\koon_\Desktop\
DataRate	CameraRate	NumFrames	NumMarkers	Units	OrigDataRate	OrigDataStartFrame	OrigNumFrames
100.0	100.0	8	27	mm	100.0	2896	3309	
Frame#	Time	get:LFHD			get:RFHD			get:LBHD			get:RBHD			get:C7			get:T10			get:CLAV			get:STRN			get:RBAK			get:LSHO			get:LUPA			get:LELB			get:LFRA			get:LWRA			get:LWRB			get:LFIN			get:RSHO			get:RUPA			get:RELB			get:RFRA			get:RWRA			get:RWRB			get:RFIN			get:LASI			get:RASI			get:LPSI			get:RPSI			
		X1	Y1	Z1	X2	Y2	Z2	X3	Y3	Z3	X4	Y4	Z4	X5	Y5	Z5	X6	Y6	Z6	X7	Y7	Z7	X8	Y8	Z8	X9	Y9	Z9	X10	Y10	Z10	X11	Y11	Z11	X12	Y12	Z12	X13	Y13	Z13	X14	Y14	Z14	X15	Y15	Z15	X16	Y16	Z16	X17	Y17	Z17	X18	Y18	Z18	X19	Y19	Z19	X20	Y20	Z20	X21	Y21	Z21	X22	Y22	Z22	X23	Y23	Z23	X24	Y24	Z24	X25	Y25	Z25	X26	Y26	Z26	X27	Y27	Z27	
2896	28.95	85.992332	1561.4806	-61.207493	-55.257801	1559.4824	-63.030624	64.179504	1554.2716	-222.03413	-65.343712	1528.0842	-226.94057	18.914358	1333.4209	-228.97063	6.2384734	1126.6858	-260.40417	6.6166596	1268.2513	-30.522459	4.203867	1075.9845	17.999874	-72.600021	1259.9153	-253.17561	135.22256	1333.0968	-131.16997	212.72485	1237.2111	-53.233425	213.63673	1111.8099	75.375381	200.00539	1245.748	51.88472	175.26509	1313.8209	15.058146	133.99872	1322.4229	87.066231	166.3037	1407.5004	40.682995	-112.72059	1343.2089	-143.14221	-209.89392	1209.6222	-16.017519	-232.40997	1100.4207	45.125374	-236.36809	1191.5065	14.894803	-194.93703	1317.9601	2.4239445	-171.93282	1321.7468	83.453018	-198.17711	1410.4723	31.43755	137.26456	894.25024	-14.176178	-128.87305	879.60291	-28.972954	56.913525	944.27356	-236.72702	-32.826447	942.24927	-243.61038
2897	28.96	85.615776	1561.7678	-61.035351	-55.629658	1559.5132	-62.997379	63.920631	1554.5942	-221.85648	-65.519806	1528.1973	-226.97137	19.007589	1333.7092	-228.99214	6.2649903	1127.0341	-260.39221	5.5900273	1268.36	-27.247162	3.8757691	1076.3506	17.864902	-72.463188	1260.3182	-253.40659	134.69518	1333.8386	-131.18958	213.24696	1239.9514	-52.805	217.94769	1115.1868	75.970909	202.23326	1248.8433	51.984772	175.7357	1316.5382	15.523023	136.45335	1325.0188	88.485428	166.62477	1410.1309	41.005825	-112.28449	1343.9396	-143.54536	-212.15468	1213.5944	-16.564785	-237.39211	1105.304	45.795261	-239.49376	1195.9425	14.40059	-197.02188	1322.4884	2.0715089	-176.08032	1326.3278	84.575714	-200.13757	1414.7782	30.995098	137.15651	894.2392	-14.339809	-128.92525	879.65033	-29.571501	57.085991	944.56	-236.84068	-32.619625	942.54022	-243.90874
2898	28.97	85.241158	1562.0088	-60.789482	-56.018177	1559.5593	-62.838844	63.705883	1554.9043	-221.68547	-65.71109	1528.3064	-226.85519	19.042976	1333.8514	-228.9283	6.2642932	1127.3781	-260.35904	5.2810616	1269.0564	-27.248047	3.6363885	1076.734	17.827829	-72.320549	1260.6627	-253.64569	134.08492	1334.5925	-131.25961	213.73219	1242.8246	-52.542233	223.11299	1118.7205	76.239029	204.10617	1251.9454	51.927605	176.15855	1319.4282	16.405489	139.10588	1327.4484	90.598053	166.66783	1413.0337	42.13892	-111.88356	1344.6443	-143.98265	-214.32434	1217.2256	-17.072012	-242.35364	1110.1475	46.140358	-242.8271	1200.4225	13.882657	-198.32234	1326.694	2.8076603	-179.85316	1330.6383	86.035652	-201.78117	1419.0178	31.07884	137.08308	894.25085	-14.465312	-129.00984	879.71509	-30.005077	57.225101	944.90961	-237.00836	-32.498631	942.81744	-244.06371
2899	28.98	84.874573	1562.2084	-60.465508	-56.366646	1559.5964	-62.738567	63.555328	1555.1764	-221.36559	-65.849716	1528.4972	-226.78333	19.018122	1334.0408	-228.93999	6.2626901	1127.7091	-260.28717	4.4574838	1270.0591	-25.612947	3.4059405	1077.1134	17.837839	-72.273048	1260.9427	-253.85851	133.52795	1335.415	-131.32913	214.45952	1245.5757	-52.684669	228.79378	1122.3424	76.213127	206.82275	1255.2803	52.565773	176.41643	1322.3801	17.851164	141.88203	1329.6991	93.285713	166.25681	1415.647	44.040951	-111.38042	1345.2357	-144.71318	-215.83078	1220.2689	-18.002243	-247.19205	1114.7537	46.385883	-246.08438	1204.8284	12.675475	-199.56441	1330.7639	3.9198041	-183.46317	1334.6663	88.107178	-203.02831	1423.1931	32.017056	136.99411	894.25812	-14.636364	-129.05429	879.73633	-30.453602	57.229275	945.21808	-237.15575	-32.443977	943.09412	-244.24225
2900	28.99	84.55294	1562.3376	-60.114689	-56.673515	1559.6886	-62.504566	63.400284	1555.4497	-221.04233	-65.972748	1528.7291	-226.63983	18.916853	1334.2151	-229.10106	6.2219152	1128.0249	-260.23257	4.2130299	1270.6422	-25.355057	3.2249396	1077.4719	17.8519	-72.224251	1261.1217	-254.00713	132.99908	1336.1715	-131.50359	215.41431	1248.1108	-53.065445	234.78548	1125.9445	75.967278	209.46405	1258.5847	53.227345	176.60793	1325.3199	19.99754	144.71104	1331.5017	96.716835	165.47423	1418.1823	47.053783	-110.88522	1345.6873	-145.48628	-218.09465	1223.0513	-17.89455	-251.95691	1119.0487	46.324226	-248.97046	1208.3705	12.660837	-200.64803	1334.715	5.4026675	-186.73972	1337.8365	88.316116	-203.93488	1427.0643	33.673958	136.93253	894.24005	-14.79269	-129.16043	879.69556	-30.904224	57.229321	945.50446	-237.25764	-32.44331	943.40302	-244.4664
2901	29	84.253883	1562.4443	-59.735054	-56.941181	1559.739	-62.275013	63.276321	1555.7013	-220.72861	-66.110527	1529.0142	-226.54361	18.809053	1334.3163	-229.05147	6.2161603	1128.2435	-260.26563	3.8978589	1271.2366	-24.637207	3.0820775	1077.8313	17.967899	-72.174255	1261.2109	-254.1441	132.47238	1336.8933	-131.77583	216.71024	1250.4429	-53.69532	240.93648	1129.3066	75.334885	212.076	1261.7535	54.206417	176.61816	1328.0668	22.758772	147.56895	1332.8794	100.71985	164.354	1420.4518	51.099998	-110.63137	1346.1633	-145.90572	-220.20786	1225.6997	-17.742649	-256.50815	1122.9034	46.012341	-251.99828	1212.1569	12.53869	-201.29474	1338.462	7.2004766	-190.02028	1340.816	90.945404	-204.4863	1430.5503	36.19717	136.81824	894.2558	-15.003628	-129.25558	879.71667	-31.245539	57.183651	945.71594	-237.37645	-32.494152	943.64447	-244.69447
2902	29.01	83.981064	1562.4642	-59.323685	-57.231277	1559.7838	-62.012348	63.121075	1555.9592	-220.3676	-66.251854	1529.2634	-226.33089	18.639439	1334.3807	-229.16524	6.1671014	1128.3337	-260.18484	4.5148873	1271.2091	-27.830221	3.0274334	1078.1471	18.001919	-72.100273	1261.3154	-254.35013	132.00101	1337.5311	-132.1459	218.31845	1252.4485	-54.520367	247.12677	1132.4812	74.462532	214.62653	1264.6445	55.429237	176.40819	1330.5874	26.163074	150.58214	1333.7081	105.48531	162.98184	1422.2438	56.194813	-110.4174	1346.6093	-146.40033	-222.00487	1227.8601	-17.457851	-260.95157	1126.4019	45.070389	-254.57861	1215.2306	12.697025	-201.56958	1341.7452	9.8187675	-193.13005	1343.0648	93.894539	-204.79205	1433.4996	39.667446	136.71458	894.26636	-15.198152	-129.39746	879.68121	-31.499178	57.06892	945.9494	-237.52055	-32.613224	943.8255	-244.86902
2903	29.02	83.691391	1562.4923	-58.969955	-57.483997	1559.7916	-61.731621	62.929123	1556.2156	-220.01077	-66.400497	1529.4883	-226.0377	18.472622	1334.4598	-229.386	6.1103296	1128.3805	-260.19226	4.6359596	1271.7587	-29.066534	2.9162192	1078.4434	18.118095	-72.015839	1261.4155	-254.60127	131.67076	1338.0968	-132.48442	220.02933	1254.2039	-55.642937	253.36012	1135.3	73.330193	217.17679	1267.1753	57.147957	176.02332	1332.7561	30.264061	153.75424	1333.953	110.88276	161.36411	1423.5695	62.223778	-110.43935	1347.031	-147.07965	-223.99765	1230.146	-19.344313	-265.16818	1129.3639	44.017757	-256.92584	1218.1656	12.809052	-201.34511	1344.3656	12.90753	-196.00604	1344.5416	97.416115	-204.77121	1435.8109	44.012634	136.56012	894.26196	-15.410829	-129.54231	879.65338	-31.74287	56.970375	946.08655	-237.66524	-32.687046	943.99908	-245.12561
